<?xml version="1.0" encoding="utf-8"?>
<svg version="1.1" xmlns="http://www.w3.org/2000/svg" xmlns:xlink="http://www.w3.org/1999/xlink" x="0px" y="0px"
	 viewBox="-87.3 262.7 275.3 299.3" enable-background="new -87.3 262.7 275.3 299.3" xml:space="preserve">
<path fill="#D5D0FF" stroke="#6F3FF5" stroke-miterlimit="10" d="M186.3,405.2c-1.6,3.3-5.3,3.8-7.8,4.4c-0.8,0.2-1.9,0.3-3.1,0.4
	c-2.7,0.1-5.9,0.1-6.8,0.1c-0.1,0-0.2,0-0.3,0c-18.6-16-60.9-38.6-112.1-58.8c-50.1-19.8-95.6-32.1-120.5-33.6
	c-0.5,0-1.3,0.1-1.7-0.2c-9.5-8.1-10.2-12.8-10-14.5c0,0,0,0,0-0.1c0-0.4,0.2-0.7,0.3-1.1c5.7-12.5,68.2,0.4,140,28.9
	C136.5,359.3,191.1,392.5,186.3,405.2z"/>
<path fill="#D5D0FF" stroke="#6F3FF5" d="M7.7,514.6c-0.3,0.8-0.8,1.1-1.2,1.4c-0.1,0.1-0.2,0.2-0.4,0.2c-0.3,0.2-0.7,0.3-0.8,0.4
	c-1.4-2.7-5.4-5.7-10.5-7.7c-5-2-9.8-2.5-12.7-1.6c-0.1,0-0.2,0.1-0.2,0c-0.7-1.4-0.6-2.4-0.5-2.8c0-0.1,0.1-0.2,0.1-0.3
	c1.3-3.1,8.1-3.3,15.3-0.4C4,506.7,8.9,511.5,7.7,514.6z"/>
<path fill="#D5D0FF" stroke="#6F3FF5" d="M23.2,489.8c-0.5,1.1-1.1,1.5-1.6,1.9c-0.1,0.1-0.3,0.2-0.5,0.3c-0.5,0.2-1,0.4-1.1,0.5
	c-1.9-3.6-7.2-7.6-14.1-10.4c-6.7-2.7-13.2-3.4-17.1-2.2c-0.1,0-0.2,0.1-0.3,0c-1-1.8-0.8-3.2-0.6-3.7c0-0.1,0.1-0.3,0.1-0.3
	c1.7-4.2,10.9-4.4,20.6-0.6C18.3,479.3,24.8,485.7,23.2,489.8z"/>
<path fill="#D5D0FF" stroke="#6F3FF5" d="M3,540.7c-0.5,1.1-1.1,1.5-1.6,1.9c-0.1,0.1-0.3,0.2-0.5,0.3c-0.5,0.2-1,0.4-1.1,0.5
	c-1.9-3.6-7.2-7.6-14.1-10.4c-6.7-2.7-13.2-3.4-17.1-2.2c-0.1,0-0.2,0.1-0.3,0c-1-1.8-0.8-3.2-0.6-3.7c0-0.1,0.1-0.2,0.1-0.3
	c1.7-4.2,10.9-4.4,20.6-0.6C-1.9,530.1,4.6,536.5,3,540.7z"/>
<path fill="#D5D0FF" stroke="#6F3FF5" stroke-miterlimit="10" d="M-31.6,530.9c0.1,0,0.1-0.1,0.2-0.1c3.9-1.2,10.4-0.5,17.1,2.2
	c6.9,2.7,12.2,6.7,14.1,10.4"/>
<path fill="#D5D0FF" stroke="#6F3FF5" stroke-miterlimit="10" d="M-15.4,535.2c2.8,1.1,5.1,2.7,6.2,4.2c0.8,0.9,1.1,2.1,0.6,3.3
	l-1.4,3.6c-1.9,4.7-7.2,7-11.8,5.1c-4.7-1.9-7-7.2-5.1-11.8l1.4-3.6c0.5-1.2,1.6-1.9,2.8-2C-20.9,533.7-18.2,534.1-15.4,535.2z"/>
<path fill="#D5D0FF" stroke="#6F3FF5" stroke-miterlimit="10" d="M-17,539.7c-2.6-1.1-3.8-4.1-2.8-6.7l22.9-58.2
	c1-2.5,4-3.8,6.6-2.7c2.6,1,3.9,4,2.9,6.5l-22.9,58.2c-1,2.6-3.9,4-6.5,3c0,0,0,0-0.1,0L-17,539.7z"/>
<path fill="#D5D0FF" stroke="#6F3FF5" stroke-miterlimit="10" d="M22.2,493.2c-0.7,1.8-1.8,3.8-1.8,3.8c-2,3.8-11,4-20.4,0.2
	c-9.3-3.7-15.7-9.8-14.8-13.9c0.1-0.5,0.2-1,0.4-1.7c0.2-0.8,0.5-1.5,0.7-2c0.2-0.6,0.5-1.3,0.9-2.2c0.3-0.6,0.6-1.1,0.8-1.5
	c-1.6,4.2,4.9,10.6,14.6,14.5c9.7,3.8,18.9,3.6,20.6-0.6c0.1-0.1,0.1-0.3,0.1-0.4C23.1,490.3,22.8,491.7,22.2,493.2z"/>
<path fill="#D5D0FF" stroke="#6F3FF5" stroke-miterlimit="10" d="M2,544.1c-0.7,1.8-1.8,3.8-1.8,3.8c-2,3.8-11,4-20.4,0.2
	c-9.3-3.7-15.7-9.8-14.8-13.9c0.1-0.5,0.2-1,0.4-1.7c0.2-0.8,0.5-1.5,0.7-2c0.2-0.6,0.5-1.3,0.9-2.2c0.3-0.6,0.6-1.1,0.8-1.5
	c-1.6,4.2,4.9,10.6,14.6,14.5c9.7,3.8,18.9,3.6,20.6-0.6c0.1-0.1,0.1-0.3,0.1-0.4C2.9,541.1,2.6,542.5,2,544.1z"/>
<path fill="#D5D0FF" stroke="#6F3FF5" stroke-miterlimit="10" d="M6.9,517.1c-0.5,1.4-1.3,2.8-1.3,2.8c-1.5,2.8-8.2,2.9-15.2,0.2
	c-6.9-2.7-11.7-7.3-11-10.4c0.1-0.4,0.2-0.8,0.3-1.2c0.2-0.6,0.3-1.1,0.5-1.5c0.2-0.4,0.4-1,0.7-1.6c0.2-0.4,0.4-0.8,0.6-1.1
	c-1.2,3.1,3.6,7.9,10.9,10.8c7.3,2.9,14.1,2.7,15.3-0.4c0-0.1,0.1-0.2,0.1-0.3C7.6,514.9,7.4,515.9,6.9,517.1z"/>
<path fill="#D5D0FF" stroke="#6F3FF5" stroke-miterlimit="10" d="M110.6,485.3c-1.1,2.4-3.7,2.8-5.6,3.2c-0.6,0.1-1.4,0.2-2.2,0.3
	c-2,0.1-4.2,0.1-4.9,0c-0.1,0-0.1,0-0.2,0c-13.3-11.4-43.5-27.6-80-42c-35.9-14.1-68.3-22.9-86.1-24c-0.4,0-0.9,0.1-1.2-0.2
	c-6.8-5.8-7.3-9.1-7.2-10.3c0-0.3,0.1-0.6,0.2-0.8c4-9,48.8,0.3,100,20.6C74.9,452.5,113.9,476.3,110.6,485.3z"/>
<path fill="#D5D0FF" stroke="#6F3FF5" d="M38.3,559.1c-0.7,0.1-1.5,0.1-2.2,0c-0.5-0.1-1-0.2-1.5-0.4c-0.8-0.3-1.6-0.8-2.2-1.4
	c-0.9-0.8-1.5-1.8-1.9-3c-0.5-1.5-0.5-3.2,0.2-4.8L91.6,396c0.7-1.5,13.9,3,13,5.4L43.7,554.9C42.7,557.1,40.6,558.7,38.3,559.1z"/>
<path fill="#D5D0FF" stroke="#6F3FF5" d="M-61.5,517.1c-1.4,3.6-5.5,5.4-9.1,3.9c-3.6-1.4-5.4-5.5-3.9-9.1l56.8-143.3
	c1.4-3.6,5.5-5.4,9.1-3.9c3.6,1.4,5.4,5.5,3.9,9.1L-61.5,517.1z"/>
<path fill="#D5D0FF" stroke="#6F3FF5" stroke-miterlimit="10" d="M100,400.9L37.3,559c-0.8,0.1-1.6,0.2-2.3,0
	c-0.5-0.1-1.1-0.2-1.6-0.4c-0.9-0.3-1.6-0.9-2.3-1.5c-0.9-0.9-1.6-2-2-3.1c-0.5-1.6-0.5-3.4,0.2-5.1c0,0,58-146.3,58.1-146.5
	C87.9,400.9,99.5,400.3,100,400.9z"/>
<path fill="#D5D0FF" stroke="#6F3FF5" stroke-miterlimit="10" d="M81.2,389.1l26.1-66.1c2.4-5.8-11.2-16.7-30.2-24.2
	c-19-7.5-36.5-8.9-38.8-3L12.2,362c10.6,4.7,21.6,9.6,33.3,14.2C57.9,381,69.8,385.3,81.2,389.1z"/>
<path fill="#D5D0FF" stroke="#6F3FF5" stroke-miterlimit="10" d="M82.1,445.8c-4.2,0.4-7.8-1.5-9.5-6.5"/>
<path fill="#D5D0FF" stroke="#6F3FF5" stroke-miterlimit="10" d="M62.6,464.4c1.7,5,5.3,6.9,9.5,6.5"/>
<path fill="#D5D0FF" stroke="#6F3FF5" stroke-miterlimit="10" d="M44.7,509.8c1.7,5,5.3,6.9,9.5,6.5"/>
<path fill="#D5D0FF" stroke="#6F3FF5" stroke-miterlimit="10" d="M34.7,534.4c1.7,5,5.3,6.9,9.5,6.5"/>
<path fill="#D5D0FF" stroke="#6F3FF5" stroke-miterlimit="10" d="M-11.6,362.6l-61.7,156.2c0.5,0.6,1.1,1.2,1.7,1.6
	c0.5,0.3,1,0.6,1.6,0.8c0.9,0.4,1.8,0.5,2.7,0.5c1.3,0,2.6-0.3,3.7-0.9c1.5-0.8,2.8-2.1,3.4-3.8l56.9-144.2c0.1-0.1,0.1-0.3,0.2-0.4
	c0.6-1.6,0.6-3.3,0-4.9c-0.1-0.2-0.2-0.4-0.3-0.6c-0.4-0.9-1-1.8-1.8-2.5c-0.7-0.6-1.5-1.1-2.4-1.5c-0.6-0.2-1.1-0.4-1.7-0.5
	C-10,362.4-10.9,362.4-11.6,362.6z"/>
<path fill="#D5D0FF" d="M7,463.3c0-0.1-13-53-13-53.1c-0.2-0.9-0.2-1.8,0.1-2.6c2.3-5.9,19.7-4.6,38.7,2.9
	c19,7.5,32.5,18.4,30.2,24.3c-0.3,0.8-0.9,1.4-1.7,2c-0.1,0-0.1,0.1-0.2,0.1c-0.1,0-0.1,0.1-0.2,0.1s-0.1,0.1-0.2,0.1c0,0,0,0-0.1,0
	c0,0-43.3,30.1-43.4,30.2"/>
<path fill="#D5D0FF" stroke="#6F3FF5" stroke-miterlimit="10" d="M7,463.3c0-0.1-13-53-13-53.1c-0.2-0.9-0.2-1.8,0.1-2.6
	c2.3-5.9,19.7-4.6,38.7,2.9c19,7.5,32.5,18.4,30.2,24.3c-0.3,0.8-0.9,1.4-1.7,2c-0.1,0-0.1,0.1-0.2,0.1c-0.1,0-0.1,0.1-0.2,0.1
	s-0.1,0.1-0.2,0.1c0,0,0,0-0.1,0c0,0-43.3,30.1-43.4,30.2"/>
<path fill="#D5D0FF" stroke="#6F3FF5" stroke-miterlimit="10" d="M-15.3,403.9c-4.8,2.5-8.8,1.3-11.6-1.8"/>
<path fill="#D5D0FF" stroke="#6F3FF5" stroke-miterlimit="10" d="M-37,427c2.9,3.2,6.9,4.3,11.6,1.8"/>
<path fill="#D5D0FF" stroke="#6F3FF5" stroke-miterlimit="10" d="M-56.4,476.1c2.9,3.2,6.9,4.3,11.6,1.8"/>
<path fill="#D5D0FF" stroke="#6F3FF5" stroke-miterlimit="10" d="M-65.7,499c2.9,3.2,6.9,4.3,11.6,1.8"/>
<path fill="#D5D0FF" stroke="#6F3FF5" stroke-miterlimit="10" d="M-5.6,406.9c-2.3,5.9,11.2,16.8,30.3,24.3
	c19.1,7.5,36.4,8.9,38.8,3l9.2-24c-11.6-4.3-23.5-8.8-35.6-13.6c-11.3-4.5-22.3-9.1-32.9-13.7C0.7,390.8-2.4,398.8-5.6,406.9z"/>
<path fill="#D5D0FF" stroke="#6F3FF5" stroke-miterlimit="10" d="M45.3,306.2L2.4,418.7"/>
<path fill="#D5D0FF" stroke="#6F3FF5" stroke-miterlimit="10" d="M184.2,415.9c-2.1,5.6-6.6,10.9-6.6,10.9
	c-8,10.9-69.2-2.1-139.4-29.9C-31,369.6-84,337.9-84.1,324.1c0-1.6,0.1-3.4,0.3-5.4c0.3-2.4,0.9-4.5,1.5-6.3c0.7-1.8,1.7-4,3.2-6.4
	c1.1-1.7,2.3-3.1,3.4-4.3c-5,12.6,49.6,46,121.9,74.6c72.3,28.6,135.1,41.6,140.1,29c0.2-0.4,0.3-0.9,0.3-1.4
	C186.5,406.8,186.1,411.1,184.2,415.9z"/>
<path fill="#D5D0FF" stroke="#6F3FF5" stroke-miterlimit="10" d="M177.6,426.8c-8,10.9-69.2-2.1-139.4-29.9
	C-31,369.6-84,337.9-84.1,324.2"/>
<path fill="#D5D0FF" stroke="#6F3FF5" stroke-miterlimit="10" d="M-75.6,301.8c-1.9,2-4.9,5.7-6.8,11.1c-1.6,4.8-1.8,8.9-1.7,11.5"
	/>
<path fill="#D5D0FF" stroke="#6F3FF5" stroke-miterlimit="10" d="M129.9,426.1c1.5-2,3.5-5,5-8.9c1.9-4.8,2.3-9.1,2.4-12"/>
<path fill="#D5D0FF" stroke="#6F3FF5" stroke-miterlimit="10" d="M98.8,417.6c1.7-2.1,4-5.4,5.7-9.8c1.9-4.9,2.2-7.9,2.3-10.7"/>
<path fill="#D5D0FF" stroke="#6F3FF5" stroke-miterlimit="10" d="M58.9,405.3c1.8-2.1,4.4-5.6,6.2-10.5c1.9-4.9,2.2-7.1,2.3-9.9"/>
<path fill="#D5D0FF" stroke="#6F3FF5" stroke-miterlimit="10" d="M-68.9,315.2c-1.7,2.1-4.5,6-6,11.6c-1.3,4.9-1.5,6.5-1.2,9"/>
<path fill="#D5D0FF" stroke="#6F3FF5" stroke-miterlimit="10" d="M-42.9,333.6c-1.9,2-3.7,4.3-5.6,9.8c-1.6,4.8-1.8,8.9-1.7,11.5"/>
<path fill="#D5D0FF" stroke="#6F3FF5" stroke-miterlimit="10" d="M-12,350.6c-1.9,2-4.2,4.9-6,10.4c-1.6,4.8-1.8,7.8-1.7,10.4"/>
<path fill="#D5D0FF" stroke="#6F3FF5" stroke-miterlimit="10" d="M110.7,484.4c0,2.1-0.4,5.1-1.7,8.6c-1.5,4-3.7,6.8-5.2,8.4"/>
<path fill="#D5D0FF" stroke="#6F3FF5" stroke-miterlimit="10" d="M-76.7,411.4c-1.3,1.4-3.5,4-4.8,8c-1.2,3.4-1.3,6.4-1.2,8.2"/>
<path fill="#D5D0FF" stroke="#6F3FF5" stroke-miterlimit="10" d="M107.6,320.1c0.2,0.9,0.2,1.8-0.1,2.5c-2.2,5.6-19.5,4.1-38.6-3.4
	c-19-7.5-32.6-18.2-30.4-23.8c0.3-0.8,0.9-1.4,1.6-1.9c0.1,0,0.1-0.1,0.2-0.1c0.1,0,0.1-0.1,0.2-0.1c0.1,0,0.1-0.1,0.2-0.1
	c0,0,0,0,0.1,0l39.8-25.4l2.4-1.5c0.8-0.7,3.6-0.3,6.6,0.9c3,1.2,5.3,2.9,5.4,3.9c0,0.1,1.1,4.1,1.1,4.2
	C96.2,275.2,107.6,320,107.6,320.1z"/>
<path fill="#D5D0FF" stroke="#6F3FF5" stroke-miterlimit="10" d="M139.9,380.9l-3.9,10c-2.5,6.4-43.7-3.9-91.8-22.9
	C-4,349-41,328.4-38.5,322l3.9-10l8.3,3.3c1.1,6.3,33.6,23.8,75.4,40.2c41.8,16.5,77.5,26,82.6,22.2L139.9,380.9z"/>
<path fill="#D5D0FF" stroke="#6F3FF5" stroke-miterlimit="10" d="M96.3,351.7l-0.4,1.1c23,11.1,37.8,20.5,36.4,24.1
	c-0.1,0.3-0.3,0.5-0.5,0.7c-5.1,3.9-40.9-5.7-82.6-22.2s-74.3-34-75.4-40.2c-0.1-0.3,0-0.6,0.1-0.8c1.6-4.1,23.6,0.5,53.4,10.6
	c0.1-0.4,0.2-0.7,0.3-1.1C-6.9,312.2-32.6,307-34.6,312c-2.5,6.4,34.4,27,82.7,46c48.2,19,89.3,29.3,91.8,22.9
	C141.7,376.4,123.9,364.8,96.3,351.7z"/>
<path fill="#D5D0FF" stroke="#6F3FF5" stroke-miterlimit="10" d="M109,493c-1.5,4-4.7,7.8-4.7,7.8c-5.7,7.8-49.5-1.5-99.6-21.4
	c-49.5-19.5-87.3-42.2-87.4-52c0-1.1,0-2.4,0.2-3.8c0.3-1.7,0.7-3.3,1.1-4.5c0.5-1.3,1.2-2.9,2.3-4.6c0.8-1.2,1.7-2.2,2.4-3
	c-3.6,9,35.4,32.9,87.1,53.3c51.7,20.4,96.5,29.7,100,20.6c0.1-0.3,0.2-0.6,0.2-1C110.7,486.4,110.4,489.5,109,493z"/>
<path fill="#D5D0FF" stroke="#6F3FF5" stroke-miterlimit="10" d="M81.8,502.4c1.1-1.5,2.5-3.6,3.6-6.4c1.3-3.4,1.7-6.5,1.7-8.6"/>
<path fill="#D5D0FF" stroke="#6F3FF5" stroke-miterlimit="10" d="M31.8,489.7c1.3-1.5,3.1-4,4.5-7.5c1.3-3.5,1.6-5,1.6-7.1"/>
<path fill="#D5D0FF" stroke="#6F3FF5" stroke-miterlimit="10" d="M-57.5,431.3c-1.3,1.4-2.6,3.1-4,7c-1.2,3.4-1.3,6.4-1.2,8.2"/>
<path fill="#D5D0FF" stroke="#6F3FF5" stroke-miterlimit="10" d="M-13.9,454.5c-1.3,1.4-2.6,3.6-4,7.5c-1.2,3.4-1.3,5.6-1.2,7.5"/>
</svg>
