<?xml version="1.0" encoding="utf-8"?>
<!-- Generator: Adobe Illustrator 18.1.1, SVG Export Plug-In . SVG Version: 6.00 Build 0)  -->
<svg version="1.1" id="图层_1" xmlns="http://www.w3.org/2000/svg" xmlns:xlink="http://www.w3.org/1999/xlink" x="0px" y="0px"
	 viewBox="0 0 240.9 240.9" enable-background="new 0 0 240.9 240.9" xml:space="preserve">
<g>
	<defs>
		<rect id="SVGID_1_" x="-29.5" y="-29.5" width="300" height="300"/>
	</defs>
	<clipPath id="SVGID_2_">
		<use xlink:href="#SVGID_1_"  overflow="visible"/>
	</clipPath>
	<path clip-path="url(#SVGID_2_)" fill="#FFEEDA" d="M223.4,164.7l0-139.2c-0.2-11.6-9.4-21-21.1-21L57,4.5
		C25.7,5,0.5,30.6,0.5,62.1c0,10.6,2.8,19.7,7.2,27.6c3.6,6.6,9.4,12.9,15.2,17.6c1.6,1.3,0.8,0.8,5.8,3.8
		c6.8,4.2,14.6,6.2,14.6,6.2l-0.1,83.2c0.2,3.9,0.6,7.7,1.6,11.2c3.2,11.7,11.4,20.7,22.4,25.1c4.6,1.8,9.9,3.1,15.4,3.1l116,0.4
		c23.1,0,41.9-18.8,41.9-42C240.5,184.6,233.7,172.3,223.4,164.7"/>
	<path clip-path="url(#SVGID_2_)" fill="#EBC28E" d="M226.2,199.4c-0.5,14.9-12.7,26.8-27.6,26.8l-79.9-0.3
		c6.4-7.4,10.2-16.9,10.2-27.4c0-16.4-9.8-27.7-9.8-27.7h79.4c15.3,0,27.6,12.4,27.6,27.7L226.2,199.4z"/>
	<path clip-path="url(#SVGID_2_)" fill="#190602" d="M30.4,95.5c-9.2-8.7-15.7-19.9-15.7-33.4l0-1.4C15.5,37.9,34.3,19.5,57,18.8
		l145.2,0c3.8,0.1,6.9,2.9,6.9,6.7v122.9c3.4,0.6,5,1,8.2,2.2c2.5,0.9,6.1,2.9,6.1,2.9v-128c-0.2-11.6-9.4-21-21.1-21L57,4.5
		C25.7,5,0.5,30.6,0.5,62.1c0,18.3,8.3,33.9,22,44.9c0.9,0.7,1.8,1.7,4.3,1.7c4.3,0,7.3-3.4,7.1-7.1C33.7,98.5,32.4,97.4,30.4,95.5"
		/>
	<path clip-path="url(#SVGID_2_)" fill="#190602" d="M198.6,156.6H84.6c-7.6,0.1-13.8,6.3-13.8,13.9v16.3
		c0.2,7.6,6.7,14.1,14.3,14.1h8.5v-14.1h-8.5v-16h4.6c14.4,0,25,13.4,25,27.7c0,12.7-11.5,28.9-30.9,27.6
		c-17.2-1.2-26.4-16.4-26.4-27.6l0-138.8c0-6.3-5.1-11.4-11.4-11.4H34.7v14.2l8.4,0l0,136c-0.4,27.7,19.7,41.6,40.7,41.6l114.7,0.3
		c23.1,0,41.9-18.8,41.9-42C240.5,175.3,221.7,156.6,198.6,156.6 M226.2,199.4c-0.5,14.9-12.7,26.8-27.6,26.8l-79.9-0.3
		c6.4-7.4,10.2-16.9,10.2-27.4c0-16.4-9.8-27.7-9.8-27.7h79.4c15.3,0,27.6,12.4,27.6,27.7L226.2,199.4z"/>
	<path clip-path="url(#SVGID_2_)" fill="#190602" d="M167.9,50.9H82V65h85.9c3.9,0,7.1-3.2,7.1-7.1C175,54,171.8,50.9,167.9,50.9"/>
	<path clip-path="url(#SVGID_2_)" fill="#190602" d="M167.9,117.7H82v14.2h85.9c3.9,0,7.1-3.2,7.1-7.1
		C175,120.9,171.8,117.7,167.9,117.7"/>
	<path clip-path="url(#SVGID_2_)" fill="#190602" d="M183,84.3H82v14.2h101c3.9,0,7.1-3.2,7.1-7.1C190.1,87.5,186.9,84.3,183,84.3"
		/>
</g>
</svg>
