<svg width="592" height="176" viewBox="0 0 592 176" fill="none" xmlns="http://www.w3.org/2000/svg">
<path d="M243.889 68.0312C241.096 65.4922 237.859 63.4821 234.177 62.001C230.538 60.5622 226.793 59.8428 222.942 59.8428C219.091 59.8428 215.536 60.4987 212.278 61.8105C208.935 63.1647 206.099 65.0055 203.772 67.333C201.444 69.7451 199.604 72.5804 198.249 75.8389C196.938 79.0127 196.282 82.5462 196.282 86.4395C196.282 91.8984 197.551 96.638 200.09 100.658C202.587 104.721 205.994 107.789 210.31 109.862C214.626 112.021 219.408 113.1 224.656 113.1C226.772 113.1 229.12 112.846 231.702 112.338C234.241 111.83 236.124 110.963 237.351 109.735V96.7227H228.528L220.593 77.7432H259.504V124.271C257.812 125.329 255.251 126.514 251.824 127.826C248.65 129.053 245.518 130.048 242.429 130.81C239.552 131.571 236.166 132.227 232.273 132.777C228.591 133.285 225.1 133.539 221.799 133.539C213.251 133.539 205.316 131.444 197.996 127.255C190.632 123.023 184.835 117.31 180.603 110.116C176.329 102.922 174.192 95.0299 174.192 86.4395C174.192 77.8913 176.329 69.9779 180.603 62.6992C184.835 55.5475 190.632 49.8346 197.996 45.5605C205.316 41.3711 213.251 39.2764 221.799 39.2764C225.989 39.2764 230.263 39.763 234.621 40.7363C238.896 41.7096 242.937 43.1696 246.746 45.1162C250.639 47.1051 254.024 49.3691 256.902 51.9082L243.889 68.0312ZM315.409 59.3984C310.797 59.3984 306.544 60.6468 302.651 63.1436C298.715 65.598 295.605 68.8988 293.32 73.0459C291.034 77.1507 289.892 81.4671 289.892 85.9951C289.892 90.5231 291.056 94.8395 293.383 98.9443C295.71 103.134 298.8 106.456 302.651 108.91C306.544 111.407 310.797 112.655 315.409 112.655C319.98 112.655 324.211 111.407 328.105 108.91C331.956 106.456 335.066 103.134 337.436 98.9443C339.721 94.7972 340.863 90.4808 340.863 85.9951C340.863 81.4671 339.721 77.1507 337.436 73.0459C335.151 68.9411 332.061 65.6403 328.168 63.1436C324.19 60.6468 319.937 59.3984 315.409 59.3984ZM315.409 38.832C324 38.832 331.934 40.9268 339.213 45.1162C346.534 49.348 352.31 55.0609 356.542 62.2549C360.816 69.5335 362.953 77.4469 362.953 85.9951C362.953 94.5856 360.816 102.478 356.542 109.672C352.31 116.908 346.534 122.621 339.213 126.811C331.934 131 324 133.095 315.409 133.095C306.861 133.095 298.927 131 291.606 126.811C284.242 122.579 278.445 116.866 274.213 109.672C269.939 102.478 267.802 94.5856 267.802 85.9951C267.802 77.4469 269.939 69.5335 274.213 62.2549C278.445 55.1032 284.242 49.3903 291.606 45.1162C298.927 40.9268 306.861 38.832 315.409 38.832ZM395.562 98.373L404.449 82.377L413.272 98.373H395.562ZM431.236 131H454.024L404.449 39.6572L354.811 131H377.599L386.422 115.004H422.413L431.236 131ZM511.009 131H459.212V40.9902L481.302 40.9268V110.434H516.912L511.009 131Z" fill="#1E293A"/>
<path d="M522.48 55.9707C526.035 50.2578 530.647 45.9626 536.318 43.085C541.946 40.2497 548.125 38.832 554.853 38.832C560.143 38.832 564.946 39.8688 569.262 41.9424C573.663 44.0583 577.197 47.1051 579.863 51.083C582.487 55.1878 583.798 59.9062 583.798 65.2383C583.798 68.9622 583.121 72.2207 581.767 75.0137C580.455 77.6797 578.276 80.3457 575.229 83.0117C577.81 84.4505 580.053 86.249 581.958 88.4072C583.82 90.6077 585.28 93.0833 586.337 95.834C587.353 98.5423 587.861 101.335 587.861 104.213C587.861 109.249 586.909 113.586 585.004 117.226C582.973 120.95 580.328 123.954 577.07 126.239C573.6 128.651 569.855 130.386 565.835 131.444C561.645 132.545 557.329 133.095 552.885 133.095C549.034 133.095 545.268 132.502 541.587 131.317C537.82 130.132 534.244 128.419 530.859 126.176C527.389 123.891 524.469 121.373 522.099 118.622L536.762 103.705C539.217 106.879 541.629 109.185 543.999 110.624C546.411 112.147 549.331 112.909 552.758 112.909C556.355 112.909 559.318 111.999 561.645 110.18C563.973 108.36 565.136 105.588 565.136 101.864C565.136 98.1403 563.867 95.6436 561.328 94.374C558.746 93.1468 555.276 92.5332 550.918 92.5332H547.363C546.982 92.5755 546.411 92.5967 545.649 92.5967H544.697L543.681 92.6602V76.918C544.528 76.918 545.564 76.8968 546.792 76.8545H548.442L550.156 76.791C552.441 76.7064 554.536 76.4525 556.44 76.0293C558.302 75.6061 559.868 74.6963 561.137 73.2998C562.322 71.988 562.915 70.0413 562.915 67.46C562.915 63.9899 561.899 61.4085 559.868 59.7158C557.794 58.0231 555.128 57.1768 551.87 57.1768C550.346 57.1768 548.971 57.3883 547.744 57.8115C546.686 58.1924 545.586 58.7214 544.443 59.3984C543.597 59.9909 542.454 60.9219 541.015 62.1914C540.719 62.4453 540.402 62.7204 540.063 63.0166C539.851 63.2282 539.576 63.4821 539.238 63.7783C538.561 64.3708 538.116 64.7728 537.905 64.9844L522.48 55.9707Z" fill="#A78BFA"/>
<path d="M29.1167 131.28C22.9029 124.832 18.0728 117.182 14.923 108.8C11.7732 100.418 10.3702 91.4804 10.8 82.5362C11.2299 73.5921 13.4837 64.8303 17.4229 56.7888C21.3621 48.7474 26.9036 41.5961 33.707 35.7742C40.5105 29.9522 48.4322 25.5825 56.9859 22.9334C65.5395 20.2843 74.5443 19.4118 83.4474 20.3693C92.3505 21.3269 100.964 24.0943 108.759 28.5018C116.553 32.9092 123.365 38.8635 128.774 45.999C134.132 47.6017 133.512 42.9692 133.278 41.7877C133.245 41.6248 133.172 41.4724 133.068 41.3431C127.234 33.7828 119.921 27.4908 111.574 22.8513C103.228 18.2118 94.0233 15.3221 84.5228 14.3586C75.0222 13.3951 65.425 14.3781 56.317 17.2476C47.209 20.117 38.7815 24.8127 31.5488 31.0479C24.3162 37.2832 18.4303 44.9271 14.2505 53.513C10.0706 62.0989 7.68459 71.4467 7.23802 80.9855C6.79145 90.5244 8.29374 100.054 11.6531 108.993C15.0125 117.932 20.1585 126.092 26.777 132.976C29.7718 134.158 29.1167 131.28 29.1167 131.28Z" fill="#1E293A"/>
<path d="M142.135 75.4322C144.78 91.4426 141.856 107.876 133.849 121.991C125.842 136.105 113.237 147.048 98.1377 152.992C115.068 148.166 129.499 137.025 138.452 121.867C147.406 106.71 150.198 88.6932 146.253 71.5366L142.135 75.4322Z" fill="#1E293A"/>
<path d="M106.876 85.5048C106.748 85.5748 106.642 85.6804 106.572 85.809C100.723 96.4661 89.8902 109.557 75.9342 122.074C57.135 138.861 37.8679 149.881 26.0176 151.518C36.6396 153.484 59.2992 141.739 81.3154 122.074C95.4469 109.404 106.326 96.1035 112.175 85.4112C112.233 85.304 112.262 85.1841 112.26 85.0627C112.259 84.9412 112.227 84.822 112.168 84.7161C112.108 84.6101 112.023 84.5207 111.92 84.4562C111.818 84.3917 111.7 84.354 111.579 84.3467C109.943 84.362 108.332 84.7586 106.876 85.5048Z" fill="#1E293A"/>
<path d="M120.75 89.9971C116.071 88.9209 113.38 93.2609 111.602 96.1153C111.345 96.5716 109.532 99.4143 109.263 99.8705L108.818 100.607L108.97 100.35C102.174 111.627 89.8435 124.203 73.735 135.445C43.9979 156.245 13.325 163.708 5.21808 152.103C1.52142 146.827 3.15918 138.498 8.83285 129.023C9.46455 126.683 8.35321 127.057 8.20113 127.116C0.339878 139.036 -2.32733 149.53 2.21161 155.94C11.4884 169.206 47.5776 159.965 82.8245 135.305C99.8456 123.396 113.556 110.06 122.142 97.9637C122.953 96.8526 123.432 95.5342 123.523 94.1617C123.616 92.4772 123.149 90.5586 120.75 89.9971Z" fill="#A78BFA"/>
<path d="M106.783 78.555C108.59 75.4119 111 72.6569 113.874 70.4485C116.749 68.2401 120.033 66.6219 123.535 65.6869C123.535 65.6869 132.473 41.565 150.02 36.5581C150.02 36.5581 152.184 57.9894 135.678 73.3727C135.678 73.3727 137.246 92.1952 129.408 94.7338L126.939 85.0944H119.195L118.025 78.1573" fill="#A78BFA"/>
<path d="M60.4352 21.8534L80.9423 26.9071L73.7829 27.1995L67.1383 41.4715L69.747 47.812L64.2137 44.2089L40.3258 49.3795L34.5469 55.5562L37.3077 49.7773L32.9208 38.7107L29.1189 40.0092L21.9478 45.2032L14.379 58.7382L9.40723 77.8532L13.3847 86.2175L26.0071 78.4498L29.1189 74.8701L28.7211 79.8419L43.2504 98.9569L50.9245 99.4132L43.0749 102.396L41.8115 111.135C41.8115 111.135 65.6994 110.983 78.9185 99.9279C78.9185 99.9279 73.935 93.8097 69.3376 93.5874L74.6135 88.0073L80.9306 69.29L79.1992 60.0367L84.4752 64.3183L109.159 64.9149L120.108 51.1694C120.108 51.1694 114.832 34.4525 101.789 29.8668L110.41 29.4456L110.551 24.7663L71.1274 17.3028L60.4352 21.8534Z" fill="#1E293A"/>
</svg>
