<?xml version="1.0" encoding="UTF-8"?>
<!-- Generator: Adobe Illustrator 18.1.1, SVG Export Plug-In . SVG Version: 6.00 Build 0)  -->
<svg version="1.1" id="Layer_1" xmlns="http://www.w3.org/2000/svg" xmlns:xlink="http://www.w3.org/1999/xlink" x="0px" y="0px" viewBox="0 0 119.1 68" enable-background="new 0 0 119.1 68" xml:space="preserve">
<path fill="#565A9E" d="M85.1,68c0.1-4.8-0.1-9.6,0.2-14.4c0.2-3.3-1.2-3.8-4.1-3.7c-9.9,0.1-19.9,0.1-30.8,0.1  c10.3-7.6,19.8-14.8,29.6-21.6c3.7-2.6,5.7-5.1,5.3-9.9C84.9,12.3,85.2,6.1,85.1,0c0.3,0,0.7,0,1,0c10.5,11.5,21.5,22.5,33,33  c0,0.7,0,1.3,0,2c-0.7,0.4-1.4,0.7-2,1.3c-9.8,9.6-19.5,19.3-29.3,29c-0.8,0.8-2,1.3-1.7,2.8C85.8,68,85.5,68,85.1,68z"/>
<path fill="#8B8CFB" d="M28.2,4.1c0,4.6,0.2,7.6,0,10.6c-0.3,3.8,1,5.4,5.1,5.2c7.6-0.3,15.3-0.1,23.8-0.1  C50.9,26,44.2,30.5,37.6,34.7c-7.3,4.5-10.9,9.8-9.4,18.4c0.5,2.7,0.1,5.5,0.1,9.8c-7.3-7.4-13.6-13.6-19.9-20  c-3-3.1-8.1-6.1-8.4-9.4c-0.3-3.4,5.3-6.2,8.3-9.3C14.5,17.8,20.9,11.5,28.2,4.1z"/>
</svg>